Coordinates
nRows=15
nColumns=24

# SIMM Motion File Header:
name Coordinates
datacolumns 24
datarows 15
otherdata 1
range 0.66932999999999998000 0.68332999999999999000
endheader
time	pelvis_tx	pelvis_ty	pelvis_tz	pelvis_tilt	pelvis_list	pelvis_rotation	hip_flexion_r	hip_adduction_r	hip_rotation_r	knee_angle_r	ankle_angle_r	subtalar_angle_r	mtp_angle_r	hip_flexion_l	hip_adduction_l	hip_rotation_l	knee_angle_l	ankle_angle_l	subtalar_angle_l	mtp_angle_l	lumbar_extension	lumbar_bending	lumbar_rotation
      0.66932999999999998000	     -0.64203530862491887000	      0.96929577989413407000	      0.26877187870695385000	      4.63524198742476390000	     -2.10731441142173370000	     -0.33603286672977745000	     15.17700444938159000000	      1.28836277842148570000	      3.27071090300038800000	    -14.01794283391413700000	      4.85233908474448580000	     -0.00000000000000339977	     -0.00000000000001566794	     -6.16513215706661200000	     -0.57566233741067319000	      7.85079141233841330000	    -11.44672217455998000000	     12.17015470889909800000	      0.00000000000001399544	      0.00000000000031349723	    -12.62511578710816100000	     -0.35735942457546588000	      4.97999932176646980000
      0.67032999999999998000	     -0.64151961917446965000	      0.96923879141710056000	      0.26873304585045643000	      4.63737339624276410000	     -2.10715173958783410000	     -0.31356120099404411000	     15.18709239795594200000	      1.28378061393695360000	      3.24774690086823490000	    -13.90274264589483300000	      4.77740618060360140000	     -0.00000000000000339448	     -0.00000000000001583331	     -6.18761610708053760000	     -0.57409633169614405000	      7.86212537971179870000	    -11.46771944968464800000	     12.20009811076115700000	      0.00000000000001414080	      0.00000000000031373351	    -12.62262423224195000000	     -0.34105544370177782000	      4.94992133445978680000
      0.67132999999999998000	     -0.64100366967913280000	      0.96918159105478641000	      0.26869425046132289000	      4.63948239961672830000	     -2.10698684996996290000	     -0.29103320428038421000	     15.19706141137569100000	      1.27920331035984350000	      3.22500285459613780000	    -13.78777888722250500000	      4.70272004581530640000	     -0.00000000000000338848	     -0.00000000000001599551	     -6.21002079784852330000	     -0.57254429241960481000	      7.87361885006221570000	    -11.48879952373309400000	     12.22872954419455600000	      0.00000000000001427916	      0.00000000000031397753	    -12.62012876468639900000	     -0.32474669331426770000	      4.91992956499866720000
      0.67232999999999998000	     -0.64048694004913265000	      0.96912375503663029000	      0.26865556747428099000	      4.64152418665858590000	     -2.10681530700017830000	     -0.26833621463294433000	     15.20667361933163500000	      1.27464058950499930000	      3.20291867590420760000	    -13.67352441659111100000	      4.62877421908477690000	     -0.00000000000000338030	     -0.00000000000001614818	     -6.23218771087868630000	     -0.57103415245703526000	      7.88559082934373020000	    -11.51012799455287400000	     12.25342507234196900000	      0.00000000000001439652	      0.00000000000031424477	    -12.61762155906282200000	     -0.30842363438529147000	      4.89019644907423420000
      0.67332999999999998000	     -0.63997021041913260000	      0.96906591901847416000	      0.26861688448723903000	      4.64356597370044270000	     -2.10664376403039370000	     -0.24563922498550450000	     15.21628582728757800000	      1.27007786865015530000	      3.18083449721227800000	    -13.55926994595971500000	      4.55482839235424830000	     -0.00000000000000337212	     -0.00000000000001630086	     -6.25435462390884920000	     -0.56952401249446560000	      7.89756280862524380000	    -11.53145646537265300000	     12.27812060048938400000	      0.00000000000001451389	      0.00000000000031451201	    -12.61511435343924400000	     -0.29210057545631524000	      4.86046333314980130000
      0.67432999999999998000	     -0.63945267579592691000	      0.96900723100644259000	      0.26857831432076368000	      4.64546882547861810000	     -2.10661743848607720000	     -0.22275104805472254000	     15.22563617902664900000	      1.26569044044544570000	      3.15935659648957710000	    -13.44579090577484800000	      4.48173816501593340000	     -0.00000000000000335557	     -0.00000000000001647612	     -6.27616821702125090000	     -0.56818750035728316000	      7.91016993525564520000	    -11.55334897726799400000	     12.30541492009045400000	      0.00000000000001457187	      0.00000000000031488831	    -12.61250975986559700000	     -0.27559738594706940000	      4.83104106511044140000
      0.67532999999999999000	     -0.63893487284165262000	      0.96894825899645243000	      0.26853978176114390000	      4.64732536550223330000	     -2.10663951875024980000	     -0.19979914202949328000	     15.23489924536009700000	      1.26136144312411420000	      3.13808078842328570000	    -13.33257034240548800000	      4.40893313747502270000	     -0.00000000000000333622	     -0.00000000000001665891	     -6.29786403682773250000	     -0.56690886416189645000	      7.92298877766900930000	    -11.57542950285519200000	     12.33357550350941000000	      0.00000000000001461005	      0.00000000000031530096	    -12.60987270364192600000	     -0.25903415291106707000	      4.80172241303277230000
      0.67632999999999999000	     -0.63841680554810409000	      0.96888897677138630000	      0.26850129109522491000	      4.64912911047940010000	     -2.10673504179225810000	     -0.17678460503974291000	     15.24409399956258100000	      1.25711798993843260000	      3.11698931409064530000	    -13.21961359571779400000	      4.33643118546007230000	     -0.00000000000000331794	     -0.00000000000001684616	     -6.31943520263234680000	     -0.56570734593542316000	      7.93603860878922070000	    -11.59775239456523400000	     12.36419476100107700000	      0.00000000000001464326	      0.00000000000031570556	    -12.60719322289059200000	     -0.24238592886783239000	      4.77251708499540860000
      0.67732999999999999000	     -0.63789794523673315000	      0.96882876390109196000	      0.26846292611040817000	      4.65077447031722000000	     -2.10705089316777360000	     -0.15358217515642969000	     15.25308381737218300000	      1.25313116915970000000	      3.09645084095895800000	    -13.10744829907509700000	      4.26483846002300470000	     -0.00000000000000330285	     -0.00000000000001704680	     -6.34063240643136080000	     -0.56473718161568964000	      7.94978140602997470000	    -11.62080238464381500000	     12.40219004071086300000	      0.00000000000001466156	      0.00000000000031608600	    -12.60438646855626400000	     -0.22548273180290127000	      4.74365172907895880000
      0.67832999999999999000	     -0.63737908492536233000	      0.96876855103079773000	      0.26842456112559143000	      4.65241983015503990000	     -2.10736674454328910000	     -0.13037974527311647000	     15.26207363518178400000	      1.24914434838096720000	      3.07591236782727020000	    -12.99528300243240000000	      4.19324573458593620000	     -0.00000000000000328777	     -0.00000000000001724743	     -6.36182961023037570000	     -0.56376701729595613000	      7.96352420327072870000	    -11.64385237472239600000	     12.44018532042065000000	      0.00000000000001467985	      0.00000000000031646644	    -12.60157971422193800000	     -0.20857953473797017000	      4.71478637316250990000
      0.67932999999999999000	     -0.63685918326117619000	      0.96870720307623859000	      0.26838642348268249000	      4.65390324841548870000	     -2.10794726915553320000	     -0.10696232849179493000	     15.27077760615456500000	      1.24547889264017630000	      3.05609786653562000000	    -12.88416705733748200000	      4.12287341589413360000	     -0.00000000000000327079	     -0.00000000000001746327	     -6.38262961999892650000	     -0.56307532384655001000	      7.97810646975415240000	    -11.66781245757705100000	     12.48933748318909800000	      0.00000000000001472299	      0.00000000000031683064	    -12.59864912347476600000	     -0.19138893837791185000	      4.68640359928707450000
      0.68032999999999999000	     -0.63633928159699005000	      0.96864585512167933000	      0.26834828583977360000	      4.65538666667593760000	     -2.10852779376777780000	     -0.08354491171047330500	     15.27948157712734600000	      1.24181343689938560000	      3.03628336524397020000	    -12.77305111224256300000	      4.05250109720233190000	     -0.00000000000000325381	     -0.00000000000001767911	     -6.40342962976747730000	     -0.56238363039714412000	      7.99268873623757690000	    -11.69177254043170900000	     12.53848964595755300000	      0.00000000000001476612	      0.00000000000031719484	    -12.59571853272759500000	     -0.17419834201785342000	      4.65802082541163910000
      0.68132999999999999000	     -0.63581851428900271000	      0.96858384713228607000	      0.26831050730252715000	      4.65684835140543730000	     -2.10921440342145640000	     -0.06006348203929511000	     15.28786070174822100000	      1.23832946008961020000	      3.01716975347060150000	    -12.66280456196072300000	      3.98311598137126980000	     -0.00000000000000323755	     -0.00000000000001788585	     -6.42412026853320480000	     -0.56183196827901394000	      8.00769704515509060000	    -11.71616551995632300000	     12.59327204001911200000	      0.00000000000001485282	      0.00000000000031750686	    -12.59280485379953700000	     -0.15693254509848081000	      4.63013304267789660000
      0.68232999999999999000	     -0.63529745843308172000	      0.96852161913128132000	      0.26827284846716815000	      4.65830279162462090000	     -2.10993637475561350000	     -0.03656071473816470400	     15.29613154425179500000	      1.23490597625684000000	      2.99828977153666050000	    -12.55284780994990600000	      3.91405993316045420000	     -0.00000000000000322152	     -0.00000000000001808955	     -6.44477445029799070000	     -0.56132698327130914000	      8.02284736821730250000	    -11.74070279837092600000	     12.64993117784504200000	      0.00000000000001495405	      0.00000000000031780149	    -12.58989681214451500000	     -0.13964168132600349000	      4.60241025699138540000
      0.68332999999999999000	     -0.63477608438407684000	      0.96845928243591695000	      0.26823540467595103000	      4.65979575438377850000	     -2.11063771380543040000	     -0.01308916192019246400	     15.30424654439561900000	      1.23150344746395810000	      2.97971973230221550000	    -12.44321259473005100000	      3.84534915606895390000	     -0.00000000000000320607	     -0.00000000000001829383	     -6.46548408480754680000	     -0.56082806369381233000	      8.03802089682823960000	    -11.76522765204933300000	     12.70627078764959900000	      0.00000000000001506343	      0.00000000000031808725	    -12.58704550270570100000	     -0.12240635626817839000	      4.57491316826343920000
